<mxfile host="app.diagrams.net" modified="2024-02-15T00:20:52.943Z" agent="Mozilla/5.0 (Windows NT 10.0; Win64; x64) AppleWebKit/537.36 (KHTML, like Gecko) Chrome/121.0.0.0 Safari/537.36" etag="12AerlsGgRo_r2kKn946" version="23.1.4" type="device">
  <diagram name="Page-1" id="Il3O7Ltdg_j1gNACjfIA">
    <mxGraphModel dx="1050" dy="557" grid="1" gridSize="10" guides="1" tooltips="1" connect="1" arrows="1" fold="1" page="1" pageScale="1" pageWidth="827" pageHeight="1169" math="0" shadow="0">
      <root>
        <mxCell id="0" />
        <mxCell id="1" parent="0" />
        <mxCell id="KwgOtbU7W4EorzW8HVrZ-1" value="&lt;font style=&quot;font-size: 18px;&quot;&gt;01&lt;/font&gt;&lt;br&gt;&lt;br&gt;&lt;font style=&quot;font-size: 18px;&quot;&gt;Login&lt;/font&gt;" style="shape=lineEllipse;perimeter=ellipsePerimeter;whiteSpace=wrap;html=1;backgroundOutline=1;" vertex="1" parent="1">
          <mxGeometry x="370" y="210" width="100" height="100" as="geometry" />
        </mxCell>
        <mxCell id="KwgOtbU7W4EorzW8HVrZ-2" value="" style="rounded=0;whiteSpace=wrap;html=1;" vertex="1" parent="1">
          <mxGeometry x="60" y="230" width="120" height="60" as="geometry" />
        </mxCell>
        <mxCell id="KwgOtbU7W4EorzW8HVrZ-3" value="" style="strokeWidth=2;html=1;shape=mxgraph.flowchart.annotation_1;align=left;pointerEvents=1;" vertex="1" parent="1">
          <mxGeometry x="660" y="230" width="120" height="70" as="geometry" />
        </mxCell>
        <mxCell id="KwgOtbU7W4EorzW8HVrZ-4" value="&lt;font style=&quot;font-size: 18px;&quot;&gt;Admin&lt;/font&gt;" style="text;html=1;align=center;verticalAlign=middle;whiteSpace=wrap;rounded=0;" vertex="1" parent="1">
          <mxGeometry x="90" y="245" width="60" height="30" as="geometry" />
        </mxCell>
        <mxCell id="KwgOtbU7W4EorzW8HVrZ-5" value="&lt;font style=&quot;font-size: 18px;&quot;&gt;Diamond Dops&lt;/font&gt;" style="text;html=1;align=center;verticalAlign=middle;whiteSpace=wrap;rounded=0;" vertex="1" parent="1">
          <mxGeometry x="660" y="245" width="130" height="30" as="geometry" />
        </mxCell>
        <mxCell id="KwgOtbU7W4EorzW8HVrZ-6" value="" style="endArrow=classic;html=1;rounded=0;entryX=0;entryY=0.5;entryDx=0;entryDy=0;" edge="1" parent="1" target="KwgOtbU7W4EorzW8HVrZ-1">
          <mxGeometry relative="1" as="geometry">
            <mxPoint x="180" y="259.5" as="sourcePoint" />
            <mxPoint x="340" y="259.5" as="targetPoint" />
          </mxGeometry>
        </mxCell>
        <mxCell id="KwgOtbU7W4EorzW8HVrZ-11" value="&lt;font style=&quot;font-size: 14px;&quot;&gt;Login Account&lt;/font&gt;" style="text;html=1;align=center;verticalAlign=middle;whiteSpace=wrap;rounded=0;" vertex="1" parent="1">
          <mxGeometry x="220" y="260" width="100" height="30" as="geometry" />
        </mxCell>
        <mxCell id="KwgOtbU7W4EorzW8HVrZ-12" value="" style="endArrow=classic;html=1;rounded=0;entryX=0;entryY=0.5;entryDx=0;entryDy=0;" edge="1" parent="1" target="KwgOtbU7W4EorzW8HVrZ-5">
          <mxGeometry relative="1" as="geometry">
            <mxPoint x="460" y="260" as="sourcePoint" />
            <mxPoint x="650" y="260.5" as="targetPoint" />
          </mxGeometry>
        </mxCell>
        <mxCell id="KwgOtbU7W4EorzW8HVrZ-13" value="&lt;font style=&quot;font-size: 14px;&quot;&gt;Process Admin Data&lt;/font&gt;" style="text;html=1;align=center;verticalAlign=middle;whiteSpace=wrap;rounded=0;" vertex="1" parent="1">
          <mxGeometry x="490" y="230" width="140" height="30" as="geometry" />
        </mxCell>
        <mxCell id="KwgOtbU7W4EorzW8HVrZ-14" value="" style="endArrow=classic;html=1;rounded=0;" edge="1" parent="1">
          <mxGeometry relative="1" as="geometry">
            <mxPoint x="660" y="275" as="sourcePoint" />
            <mxPoint x="470" y="275" as="targetPoint" />
          </mxGeometry>
        </mxCell>
        <mxCell id="KwgOtbU7W4EorzW8HVrZ-19" value="&lt;font style=&quot;font-size: 14px;&quot;&gt;Give Access&lt;/font&gt;" style="text;html=1;align=center;verticalAlign=middle;whiteSpace=wrap;rounded=0;" vertex="1" parent="1">
          <mxGeometry x="524" y="275" width="96" height="30" as="geometry" />
        </mxCell>
      </root>
    </mxGraphModel>
  </diagram>
</mxfile>
